<mxfile host="app.diagrams.net" modified="2022-12-01T11:13:38.126Z" agent="5.0 (Windows NT 6.1; Win64; x64) AppleWebKit/537.36 (KHTML, like Gecko) Chrome/107.0.0.0 Safari/537.36" etag="QIZ1bnbQmkSY61vcM2Hi" version="20.6.0" type="github">
  <diagram name="Page-1" id="b98fa263-6416-c6ec-5b7d-78bf54ef71d0">
    <mxGraphModel dx="1662" dy="802" grid="1" gridSize="10" guides="1" tooltips="1" connect="1" arrows="1" fold="1" page="1" pageScale="1.5" pageWidth="1169" pageHeight="826" background="none" math="0" shadow="0">
      <root>
        <mxCell id="0" style=";html=1;" />
        <mxCell id="1" style=";html=1;" parent="0" />
        <mxCell id="hcTSXzJrnQQSGbbqOwBM-1" value="ФГБОУ ВО &quot;Кубанский государственный аграрный университет имени И.Т. Трубилина&quot;" style="rounded=0;whiteSpace=wrap;html=1;" vertex="1" parent="1">
          <mxGeometry x="300" y="10" width="1070" height="60" as="geometry" />
        </mxCell>
        <mxCell id="hcTSXzJrnQQSGbbqOwBM-4" value="Административно-хозяйственные подразделения,&lt;br&gt;обслуживающие основную деятельность" style="rounded=0;whiteSpace=wrap;html=1;" vertex="1" parent="1">
          <mxGeometry x="300" y="80" width="340" height="60" as="geometry" />
        </mxCell>
        <mxCell id="hcTSXzJrnQQSGbbqOwBM-5" value="Основные подразделения" style="rounded=0;whiteSpace=wrap;html=1;" vertex="1" parent="1">
          <mxGeometry x="660" y="80" width="310" height="60" as="geometry" />
        </mxCell>
        <mxCell id="hcTSXzJrnQQSGbbqOwBM-6" value="Функционально-управленческие службы" style="rounded=0;whiteSpace=wrap;html=1;" vertex="1" parent="1">
          <mxGeometry x="990" y="80" width="380" height="60" as="geometry" />
        </mxCell>
        <mxCell id="hcTSXzJrnQQSGbbqOwBM-7" value="Управление&lt;br&gt;эксплуатационно-&lt;br&gt;хозяйственного&lt;br&gt;обеспечения" style="rounded=0;whiteSpace=wrap;html=1;" vertex="1" parent="1">
          <mxGeometry x="300" y="160" width="160" height="60" as="geometry" />
        </mxCell>
        <mxCell id="hcTSXzJrnQQSGbbqOwBM-8" value="Управление&lt;br&gt;комплексной&lt;br&gt;безопасности" style="rounded=0;whiteSpace=wrap;html=1;" vertex="1" parent="1">
          <mxGeometry x="470" y="160" width="160" height="60" as="geometry" />
        </mxCell>
        <mxCell id="hcTSXzJrnQQSGbbqOwBM-9" value="Комбинат&amp;nbsp;&lt;br&gt;студенческого питания" style="rounded=0;whiteSpace=wrap;html=1;" vertex="1" parent="1">
          <mxGeometry x="300" y="230" width="160" height="50" as="geometry" />
        </mxCell>
        <mxCell id="hcTSXzJrnQQSGbbqOwBM-10" value="Дирекция&lt;br&gt;студенческого городка" style="rounded=0;whiteSpace=wrap;html=1;" vertex="1" parent="1">
          <mxGeometry x="470" y="230" width="160" height="50" as="geometry" />
        </mxCell>
        <mxCell id="hcTSXzJrnQQSGbbqOwBM-11" value="Гараж" style="rounded=0;whiteSpace=wrap;html=1;" vertex="1" parent="1">
          <mxGeometry x="300" y="290" width="160" height="40" as="geometry" />
        </mxCell>
        <mxCell id="hcTSXzJrnQQSGbbqOwBM-12" value="Насосная станция" style="rounded=0;whiteSpace=wrap;html=1;" vertex="1" parent="1">
          <mxGeometry x="470" y="290" width="160" height="40" as="geometry" />
        </mxCell>
        <mxCell id="hcTSXzJrnQQSGbbqOwBM-13" value="Спортивно-&lt;br&gt;образовательный центр" style="rounded=0;whiteSpace=wrap;html=1;" vertex="1" parent="1">
          <mxGeometry x="300" y="340" width="160" height="50" as="geometry" />
        </mxCell>
        <mxCell id="hcTSXzJrnQQSGbbqOwBM-14" value="Первый отдел" style="rounded=0;whiteSpace=wrap;html=1;" vertex="1" parent="1">
          <mxGeometry x="470" y="340" width="160" height="50" as="geometry" />
        </mxCell>
        <mxCell id="hcTSXzJrnQQSGbbqOwBM-15" value="Типография" style="rounded=0;whiteSpace=wrap;html=1;" vertex="1" parent="1">
          <mxGeometry x="300" y="400" width="160" height="40" as="geometry" />
        </mxCell>
        <mxCell id="hcTSXzJrnQQSGbbqOwBM-16" value="Второй отдел" style="rounded=0;whiteSpace=wrap;html=1;" vertex="1" parent="1">
          <mxGeometry x="470" y="400" width="160" height="40" as="geometry" />
        </mxCell>
        <mxCell id="hcTSXzJrnQQSGbbqOwBM-17" value="Служба главного&lt;br&gt;инженера" style="rounded=0;whiteSpace=wrap;html=1;" vertex="1" parent="1">
          <mxGeometry x="300" y="450" width="160" height="50" as="geometry" />
        </mxCell>
        <mxCell id="hcTSXzJrnQQSGbbqOwBM-18" value="Служба главного&lt;br&gt;энергетика" style="rounded=0;whiteSpace=wrap;html=1;" vertex="1" parent="1">
          <mxGeometry x="300" y="510" width="160" height="50" as="geometry" />
        </mxCell>
        <mxCell id="hcTSXzJrnQQSGbbqOwBM-19" value="Спортивно-&lt;br&gt;оздоровительный&lt;br&gt;лагерь&lt;br&gt;&quot;Криница&quot;" style="rounded=0;whiteSpace=wrap;html=1;" vertex="1" parent="1">
          <mxGeometry x="470" y="450" width="160" height="60" as="geometry" />
        </mxCell>
        <mxCell id="hcTSXzJrnQQSGbbqOwBM-20" value="Агрономии и&lt;br&gt;экологии" style="rounded=0;whiteSpace=wrap;html=1;" vertex="1" parent="1">
          <mxGeometry x="650" y="160" width="110" height="50" as="geometry" />
        </mxCell>
        <mxCell id="hcTSXzJrnQQSGbbqOwBM-21" value="Зоотехнии" style="rounded=0;whiteSpace=wrap;html=1;" vertex="1" parent="1">
          <mxGeometry x="765" y="160" width="100" height="50" as="geometry" />
        </mxCell>
        <mxCell id="hcTSXzJrnQQSGbbqOwBM-22" value="Плодоовощеводства&lt;br&gt;и&lt;br&gt;виноградарства" style="rounded=0;whiteSpace=wrap;html=1;" vertex="1" parent="1">
          <mxGeometry x="870" y="160" width="120" height="50" as="geometry" />
        </mxCell>
        <mxCell id="hcTSXzJrnQQSGbbqOwBM-24" value="Агрохимии&lt;br&gt;и защиты растений" style="rounded=0;whiteSpace=wrap;html=1;" vertex="1" parent="1">
          <mxGeometry x="650" y="220" width="110" height="40" as="geometry" />
        </mxCell>
        <mxCell id="hcTSXzJrnQQSGbbqOwBM-25" value="Перерабатывающих&lt;br&gt;технологий" style="rounded=0;whiteSpace=wrap;html=1;" vertex="1" parent="1">
          <mxGeometry x="765" y="220" width="115" height="40" as="geometry" />
        </mxCell>
        <mxCell id="hcTSXzJrnQQSGbbqOwBM-26" value="Учетно-&lt;br&gt;финансовый" style="rounded=0;whiteSpace=wrap;html=1;" vertex="1" parent="1">
          <mxGeometry x="890" y="220" width="100" height="40" as="geometry" />
        </mxCell>
        <mxCell id="hcTSXzJrnQQSGbbqOwBM-27" value="Землеустроительный" style="rounded=0;whiteSpace=wrap;html=1;" vertex="1" parent="1">
          <mxGeometry x="650" y="270" width="120" height="40" as="geometry" />
        </mxCell>
        <mxCell id="hcTSXzJrnQQSGbbqOwBM-28" value="Управления" style="rounded=0;whiteSpace=wrap;html=1;" vertex="1" parent="1">
          <mxGeometry x="775" y="270" width="105" height="40" as="geometry" />
        </mxCell>
        <mxCell id="hcTSXzJrnQQSGbbqOwBM-29" value="Прикладной&lt;br&gt;информатики" style="rounded=0;whiteSpace=wrap;html=1;" vertex="1" parent="1">
          <mxGeometry x="890" y="270" width="100" height="40" as="geometry" />
        </mxCell>
        <mxCell id="hcTSXzJrnQQSGbbqOwBM-30" value="Гидромелиорации" style="rounded=0;whiteSpace=wrap;html=1;" vertex="1" parent="1">
          <mxGeometry x="650" y="320" width="120" height="40" as="geometry" />
        </mxCell>
        <mxCell id="hcTSXzJrnQQSGbbqOwBM-31" value="Механизации" style="rounded=0;whiteSpace=wrap;html=1;" vertex="1" parent="1">
          <mxGeometry x="775" y="320" width="105" height="40" as="geometry" />
        </mxCell>
      </root>
    </mxGraphModel>
  </diagram>
</mxfile>
